<svg xmlns="http://www.w3.org/2000/svg" viewBox="0 0 91.208 21.818"><defs><style>.cls-1{fill:#e74b60}.cls-2{fill:#fff}</style></defs><g id="レイヤー_2" data-name="レイヤー 2"><g id="レイヤー_1-2" data-name="レイヤー 1"><path d="M21.084 1.069l-2.075 3.327 2.58 4.134-6.18.949V3.327h1.6L19.084 0H8.14l2.078 3.327h1.596v18.491h3.595v-8.055l5.017 8.042 2.075-3.327-3.824-6.129 8.457-1.296-6.05-9.984zM7.561 16.376l2.505-4.008-.002-.004-2.073-3.319-2.506 4.003-1.334-2.139 4.065-6.516-2.077-3.325L0 10.909l6.806 10.909h4.32l-3.565-5.442z" class="cls-1"/><path d="M36.846 2.794h8.738l-.52 2.884h-5.2l-.628 3.469h4.315l-.5 2.884h-4.319l-1.106 6.245h-3.513z" class="cls-2"/><path d="M47.84 5.678H44.5l.5-2.884h10.169l-.5 2.884h-3.316l-2.234 12.6h-3.512z" class="cls-2"/><path d="M52.416 16.173l7.09-10.495h-4.814l.5-2.884h8.825l-.368 2.1-7.09 10.5h5.485l-.5 2.884h-9.5zM65.622 6.914h3.318l-2 11.362h-3.313zm.759-4.272H69.7l-.542 3.123h-3.319zM71.563 6.914h2.471l.131.824a3.27 3.27 0 012.623-1.063c2.017 0 3.123 1.019 3.123 2.884a13.5 13.5 0 01-.282 2.342l-1.106 6.375h-3.318l1.128-6.44a6.452 6.452 0 00.151-1.258c0-.716-.281-1.062-.888-1.062-.889 0-1.258.563-1.583 2.363l-1.127 6.4h-3.318zM84.941 13.9c-.021.238-.064.629-.064.889 0 .759.347 1.105 1.148 1.105a1.791 1.791 0 001.736-1.236l2.667.629c-.868 2.386-2.1 3.231-4.728 3.231-2.818 0-4.1-1.106-4.1-3.534a14.316 14.316 0 01.238-2.32l.2-1.063c.629-3.642 1.951-4.922 5.03-4.922 2.819 0 4.142 1.106 4.142 3.47a17.494 17.494 0 01-.391 3.317h-5.791zm3.123-2.732a4.269 4.269 0 00.108-.933c0-.737-.325-1.062-1.106-1.062-.888 0-1.387.52-1.6 1.712l-.043.283z" class="cls-2"/></g></g></svg>