<?xml version="1.0" encoding="utf-8"?>
<!-- Generator: Adobe Illustrator 25.2.3, SVG Export Plug-In . SVG Version: 6.00 Build 0)  -->
<svg version="1.1" id="レイヤー_1" xmlns="http://www.w3.org/2000/svg" xmlns:xlink="http://www.w3.org/1999/xlink" x="0px"
	 y="0px" viewBox="0 0 226 64" style="enable-background:new 0 0 226 64;" xml:space="preserve">
<style type="text/css">
	.st0{fill:#FFFFFF;}
</style>
<g>
	<g>
		<path class="st0" d="M126,25.3c-1.4,0-2.3,0.4-3.6,1.7l-0.5-1.3h-4.2l-3.4,19.1h5.6l1.6-9.2c0.7-4.1,1.5-5.6,2.8-5.6
			c0.7,0,1.3,0.4,2,1.2l3.2-4.6C128.2,25.6,127.3,25.3,126,25.3z"/>
		<path class="st0" d="M137.7,25.3c-5.2,0-7.4,2.1-8.5,8.3l-0.3,1.8c-0.3,1.5-0.4,2.8-0.4,3.9c0,4.1,2.1,5.9,6.9,5.9
			c4.4,0,6.5-1.4,7.9-5.4l-4.5-1.1c-0.7,1.5-1.6,2.1-2.9,2.1c-1.3,0-1.9-0.6-1.9-1.9c0-0.4,0.1-1.1,0.1-1.5l0.1-0.7h9.7
			c0.4-2.3,0.7-4,0.7-5.6C144.6,27.2,142.4,25.3,137.7,25.3z M139.3,32.8h-4.4l0.1-0.5c0.4-2,1.2-2.9,2.7-2.9c1.3,0,1.9,0.5,1.9,1.8
			C139.5,31.7,139.5,32.1,139.3,32.8z"/>
		<path class="st0" d="M152.2,33.5c0.5-2.7,1.2-3.7,2.5-3.7c1.1,0,1.6,0.7,1.7,2.1l4.9-1.1c-0.2-3.9-2.3-5.6-6.8-5.6
			c-2.6,0-4.3,0.7-5.6,2.2c-1.1,1.3-1.6,2.5-2.1,5.7l-0.4,2.4c-0.3,1.6-0.4,2.7-0.4,3.8c0,3.9,2.3,5.9,6.7,5.9
			c4.2,0,6.6-1.7,7.4-5.4l-4.6-1c-0.7,1.4-1.3,1.9-2.4,1.9c-1.1,0-1.6-0.6-1.6-1.7c0-0.5,0.1-1.4,0.2-2L152.2,33.5z"/>
		<path class="st0" d="M171.1,25.3c-5.1,0-7.3,2-8.3,7.4l-0.6,3.4c-0.3,1.3-0.4,2.5-0.4,3.4c0,3.9,2.2,5.7,7,5.7
			c5.2,0,7.4-2,8.3-7.4l0.6-3.4c0.3-1.3,0.4-2.5,0.4-3.4C178.2,27,176,25.3,171.1,25.3z M172.4,33.5l-0.6,3.4
			c-0.5,2.9-1.1,3.8-2.7,3.8c-1.1,0-1.7-0.5-1.7-1.6c0-0.5,0.1-1.2,0.3-2.1l0.6-3.4c0.5-2.9,1.1-3.8,2.7-3.8c1.2,0,1.7,0.5,1.7,1.6
			C172.7,32,172.6,32.6,172.4,33.5z"/>
		<path class="st0" d="M190.3,25.3c-1.4,0-2.3,0.4-3.6,1.7l-0.5-1.3H182l-3.4,19.1h5.6l1.6-9.2c0.7-4.1,1.5-5.6,2.8-5.6
			c0.7,0,1.3,0.4,2,1.2l3.2-4.6C192.6,25.6,191.6,25.3,190.3,25.3z"/>
		<path class="st0" d="M205.7,18.8l-1.3,7.4c-1.1-0.7-2.2-0.9-3.8-0.9c-4.1,0-5.9,1.9-6.9,7.2l-0.5,3.2c-0.3,1.6-0.4,3-0.4,4.2
			c0,3.6,1.8,5.4,5.6,5.4c1.8,0,2.6-0.3,3.9-1.5l0.1,1.1h4.3l4.6-26H205.7z M203.2,33.1l-0.7,4.2c-0.4,2.3-1.2,3.3-2.6,3.3
			c-1,0-1.4-0.6-1.4-1.9c0-0.7,0.1-1.6,0.2-2.4l0.5-3.1c0.4-2.5,1.1-3.5,2.5-3.5c1.1,0,1.6,0.6,1.6,1.9
			C203.3,32.1,203.2,32.7,203.2,33.1z"/>
		<path class="st0" d="M219.3,32.9c-1.6-0.3-2.1-0.6-2.1-1.4c0-1.1,0.9-1.8,2.1-1.8c1.2,0,1.7,0.5,1.8,1.8l4.8-1.2
			c-0.1-1.5-0.3-2.2-0.8-3c-0.9-1.3-3.1-2.1-5.9-2.1c-4.6,0-7.4,2.6-7.4,6.8c0,3.2,1.7,4.7,6.3,5.4c1.2,0.2,1.6,0.5,1.6,1.2
			c0,1.3-0.9,2-2.7,2c-1.8,0-2.3-0.4-2.5-2l-4.9,1c0.1,1.5,0.3,2.4,0.8,3.1c0.9,1.5,3.2,2.3,6.5,2.3c5.5,0,8.2-2.4,8.2-7.2
			C225.2,35,223.7,33.7,219.3,32.9z"/>
		<polygon class="st0" points="114.6,22.3 115.2,18.8 66.1,18.8 61.5,44.8 67.5,44.8 69.3,34.3 76.6,34.3 77.4,29.5 70.1,29.5 
			71.2,23.6 86.8,23.6 83,44.8 88.9,44.8 92.7,23.6 107.6,23.6 95.7,41.3 95.1,44.8 111,44.8 111.9,39.9 102.7,39.9 		"/>
	</g>
	<g>
		<g>
			<polygon class="st0" points="36.8,14.8 33.2,20.6 37.7,27.8 26.9,29.5 26.9,18.8 29.7,18.8 33.3,12.9 14.2,12.9 17.8,18.8 
				20.6,18.8 20.6,51.1 26.9,51.1 26.9,37 35.7,51 39.3,45.2 32.6,34.5 47.4,32.3 			"/>
			<polygon class="st0" points="13.2,41.5 17.6,34.5 17.6,34.5 14,28.7 9.6,35.7 7.3,32 14.4,20.6 10.7,14.8 0,32 11.9,51.1 
				19.4,51.1 			"/>
		</g>
	</g>
</g>
</svg>
