<svg xmlns="http://www.w3.org/2000/svg" viewBox="0 0 130.928 21.818"><defs><style>.cls-1{fill:#e74b60;}.cls-2{fill:#fff;}</style></defs><g id="レイヤー_2" data-name="レイヤー 2"><g id="レイヤー_1-2" data-name="レイヤー 1"><polygon class="cls-1" points="21.084 1.069 19.009 4.396 21.589 8.53 15.409 9.479 15.409 3.327 17.009 3.327 19.084 0 8.14 0 10.218 3.327 11.814 3.327 11.814 21.818 15.409 21.818 15.409 13.763 20.426 21.805 22.501 18.478 18.677 12.349 27.134 11.053 21.084 1.069"/><polygon class="cls-1" points="7.561 16.376 10.066 12.368 10.064 12.364 7.991 9.045 5.485 13.048 4.151 10.909 8.216 4.393 6.139 1.068 0 10.909 6.806 21.818 11.126 21.818 7.561 16.376"/><path class="cls-2" d="M71.565,6.931a2.651,2.651,0,0,0-2.118.994l-.3-.756H66.636L64.646,18.5h3.309l.951-5.449c.432-2.422.886-3.308,1.665-3.308a1.659,1.659,0,0,1,1.211.692l1.9-2.747A3.318,3.318,0,0,0,71.565,6.931Z"/><path class="cls-2" d="M78.505,6.931c-3.07,0-4.389,1.276-5.016,4.908l-.2,1.059a14.272,14.272,0,0,0-.238,2.314c0,2.422,1.276,3.525,4.087,3.525,2.616,0,3.849-.844,4.714-3.222l-2.66-.627a1.785,1.785,0,0,1-1.73,1.232c-.8,0-1.146-.346-1.146-1.1,0-.259.043-.648.065-.886l.087-.432h5.773a17.552,17.552,0,0,0,.389-3.309C82.635,8.033,81.316,6.931,78.505,6.931Zm1,4.476H76.862l.043-.281c.216-1.19.714-1.709,1.6-1.709.779,0,1.1.325,1.1,1.06A4.245,4.245,0,0,1,79.5,11.407Z"/><path class="cls-2" d="M87.15,11.8c.281-1.6.692-2.206,1.514-2.206.627,0,.951.411.994,1.254l2.92-.627c-.13-2.335-1.341-3.308-4.065-3.308a4,4,0,0,0-3.352,1.3c-.67.756-.951,1.491-1.276,3.373l-.259,1.448a11.68,11.68,0,0,0-.238,2.227c0,2.293,1.362,3.482,3.979,3.482,2.508,0,3.892-1.017,4.389-3.222l-2.7-.606c-.389.844-.757,1.146-1.405,1.146s-.973-.346-.973-1.016a7.582,7.582,0,0,1,.108-1.189Z"/><path class="cls-2" d="M98.371,6.931c-3.049,0-4.346,1.167-4.93,4.389L93.1,13.353a10.851,10.851,0,0,0-.216,2.01c0,2.314,1.319,3.374,4.173,3.374,3.07,0,4.389-1.168,4.952-4.39l.346-2.032a10.715,10.715,0,0,0,.216-2.033C102.566,7.969,101.247,6.931,98.371,6.931Zm.757,4.887-.346,2.01c-.3,1.73-.67,2.249-1.6,2.249-.671,0-1.017-.324-1.017-.973a7.237,7.237,0,0,1,.152-1.276l.346-2.01c.3-1.73.67-2.228,1.6-2.228.692,0,1.016.325,1.016.973A6.627,6.627,0,0,1,99.128,11.818Z"/><path class="cls-2" d="M109.762,6.931a2.654,2.654,0,0,0-2.119.994l-.3-.756h-2.508L102.843,18.5h3.309l.951-5.449c.432-2.422.886-3.308,1.665-3.308a1.659,1.659,0,0,1,1.211.692l1.9-2.747A3.314,3.314,0,0,0,109.762,6.931Z"/><path class="cls-2" d="M118.886,3.06l-.778,4.411a4.109,4.109,0,0,0-2.228-.54c-2.421,0-3.524,1.146-4.086,4.259l-.324,1.925a13.969,13.969,0,0,0-.26,2.465c0,2.162,1.059,3.178,3.33,3.178a2.763,2.763,0,0,0,2.313-.908l.087.649h2.53L122.194,3.06Zm-1.513,8.52-.433,2.508c-.259,1.362-.692,1.946-1.535,1.946-.584,0-.843-.346-.843-1.125a8.329,8.329,0,0,1,.129-1.405l.324-1.816c.26-1.471.671-2.055,1.471-2.055q.974,0,.973,1.1A6.594,6.594,0,0,1,117.373,11.58Z"/><path class="cls-2" d="M126.95,11.472c-.93-.152-1.233-.346-1.233-.822a1.128,1.128,0,0,1,1.276-1.081c.692,0,1.016.3,1.081,1.081l2.854-.714a3.19,3.19,0,0,0-.5-1.751c-.541-.8-1.817-1.254-3.481-1.254-2.725,0-4.368,1.513-4.368,4.043,0,1.9,1,2.768,3.762,3.2.692.108.93.281.93.714,0,.778-.562,1.211-1.622,1.211s-1.362-.238-1.47-1.19l-2.919.606a3.384,3.384,0,0,0,.454,1.859c.562.908,1.881,1.363,3.849,1.363,3.286,0,4.865-1.406,4.865-4.282C130.431,12.682,129.544,11.9,126.95,11.472Z"/><polygon class="cls-2" points="64.797 5.158 65.164 3.06 36.054 3.06 33.33 18.499 36.833 18.499 37.936 12.271 42.239 12.271 42.736 9.396 38.433 9.396 39.06 5.936 48.296 5.936 46.069 18.499 49.572 18.499 51.799 5.936 60.667 5.936 53.597 16.401 53.229 18.499 62.7 18.499 63.197 15.623 57.726 15.623 64.797 5.158"/></g></g></svg>